<?xml version="1.0" standalone="no"?>
<!DOCTYPE svg PUBLIC "-//W3C//DTD SVG 20010904//EN"
 "http://www.w3.org/TR/2001/REC-SVG-20010904/DTD/svg10.dtd">
<svg version="1.0" xmlns="http://www.w3.org/2000/svg"
 width="360.000000pt" height="360.000000pt" viewBox="0 0 360.000000 360.000000"
 preserveAspectRatio="xMidYMid meet">

<g transform="translate(0.000000,360.000000) scale(0.100000,-0.100000)"
fill="#000000" stroke="none">
<path d="M1685 2694 c-308 -50 -557 -230 -691 -499 -68 -137 -87 -223 -88
-390 0 -113 4 -156 22 -222 85 -324 332 -571 652 -655 120 -31 319 -31 440 0
312 81 573 341 652 652 31 120 31 322 1 436 -85 322 -333 573 -648 654 -79 21
-274 34 -340 24z m314 -125 c377 -95 638 -473 591 -854 -41 -330 -258 -586
-575 -680 -119 -36 -288 -38 -410 -6 -385 101 -640 468 -595 858 40 358 318
647 675 702 80 13 221 4 314 -20z"/>
<path d="M1570 2351 c-88 -6 -125 -13 -157 -29 -60 -31 -111 -86 -142 -151
l-26 -56 0 -315 c0 -310 0 -316 24 -368 33 -73 116 -147 189 -169 84 -24 601
-24 684 0 74 22 156 96 189 169 24 52 24 58 24 368 0 309 0 316 -24 367 -32
71 -113 147 -179 166 -61 19 -409 29 -582 18z m566 -96 c49 -20 90 -58 117
-110 21 -38 22 -52 22 -330 0 -159 -3 -306 -8 -326 -11 -52 -77 -124 -135
-146 -41 -16 -80 -18 -332 -18 -210 1 -295 4 -323 14 -50 17 -103 64 -130 115
-21 39 -22 52 -22 331 0 160 3 306 8 326 9 42 66 113 111 136 44 24 166 32
427 28 181 -3 233 -7 265 -20z"/>
<path d="M2080 2157 c-34 -17 -39 -68 -11 -96 26 -26 55 -27 81 -1 51 51 -5
129 -70 97z"/>
<path d="M1715 2073 c-99 -36 -163 -103 -191 -201 -67 -229 182 -435 398 -329
177 87 218 306 84 455 -69 76 -196 109 -291 75z m181 -90 c83 -43 129 -143
106 -230 -32 -122 -152 -188 -269 -149 -142 47 -188 224 -87 336 62 68 166 87
250 43z"/>
</g>
</svg>
